{"title":"3 days to Kill 2014 DVDRip Xvid AC3 LKRG","uid":10698598,"size":1149953829,"categoryP":"video","categoryS":"movies","magnet":"?xt=urn:btih:7cd68e2b54d2bb02b71972b75815f8616a87e050&amp;dn=3+days+to+Kill+2014+DVDRip+Xvid+AC3+LKRG&amp;tr=udp%3A%2F%2Ftracker.openbittorrent.com%3A80&amp;tr=udp%3A%2F%2Fopen.demonii.com%3A1337&amp;tr=udp%3A%2F%2Ftracker.coppersurfer.tk%3A6969&amp;tr=udp%3A%2F%2Fexodus.desync.com%3A6969","seeders":14,"leechers":1,"uploader":".BONE.","files":2,"time":1407203243,"description":"PLOT\n\nA dying CIA agent trying to reconnect with his estranged daughter\nis offered an experimental drug that could save his life in exchange for one last assignment.\n\nRuntime ..........: 1h 57mn\nFile Size ........: 1.07 GB\nResolution .......: 720 x 352 &lt;a href=&quot;\nhttp://www.imdb.com/title/tt2172934/&quot; rel=&quot;nofollow&quot; target=&quot;_NEW&quot;&gt;\nhttp://www.imdb.com/title/tt2172934/&lt;/a&gt;\nGenre ............: Action,Drama,Thriller\nLanguage .........: English\nSubtitles ........: None\nComplete name : 3 days to Kill 2014 DVDRip Xvid AC3 LKRG3D2Kill_LKRG.avi\nFormat : AVI\nFormat/Info : Audio Video Interleave\nFile size : 1.07 GiB\nDuration : 1h 57mn\nOverall bit rate : 1 310 Kbps\nWriting application : VirtualDubMod 1.5.10.2 (build 2540/release)\nWriting library : VirtualDubMod build 2540/release\nVideo\nID : 0\nFormat : MPEG-4 Visual\nFormat profile : Advanced Simple@L5\nFormat settings, BVOP : 2\nFormat settings, QPel : No\nFormat settings, GMC : No warppoints\nFormat settings, Matrix : Default (H.263)\nMuxing mode : Packed bitstream\nCodec ID : XVID\nCodec ID/Hint : XviD\nDuration : 1h 57mn\nBit rate : 853 Kbps\nWidth : 720 pixels\nHeight : 352 pixels\nDisplay aspect ratio : 2.479\nFrame rate : 23.976 fps\nColor space : YUV\nChroma subsampling : 4:2:0\nBit depth : 8 bits\nScan type : Progressive\nCompression mode : Lossy\nBits/(Pixel*Frame) : 0.140\nStream size : 714 MiB (65%)\nWriting library : XviD 1.2.1 (UTC 2008-12-04)\nAudio\nID : 1\nFormat : AC-3\nFormat/Info : Audio Coding 3\nMode extension : CM (complete main)\nFormat settings, Endianness : Big\nCodec ID : 2000\nDuration : 1h 57mn\nBit rate mode : Constant\nBit rate : 448 Kbps\nChannel(s) : 6 channels\nChannel positions : Front: L C R, Side: L R, LFE\nSampling rate : 48.0 KHz\nBit depth : 16 bits\nCompression mode : Lossy\nStream size : 375 MiB (34%)\nAlignment : Split accross interleaves\nInterleave, duration : 42 ms (1.00 video frame)\nInterleave, preload duration : 500 ms","torrent":{"xt":"urn:btih:7cd68e2b54d2bb02b71972b75815f8616a87e050","amp;dn":"3+days+to+Kill+2014+DVDRip+Xvid+AC3+LKRG","amp;tr":["udp%3A%2F%2Ftracker.openbittorrent.com%3A80","udp%3A%2F%2Fopen.demonii.com%3A1337","udp%3A%2F%2Ftracker.coppersurfer.tk%3A6969","udp%3A%2F%2Fexodus.desync.com%3A6969"],"infoHash":"7cd68e2b54d2bb02b71972b75815f8616a87e050","infoHashBuffer":{"type":"Buffer","data":[124,214,142,43,84,210,187,2,183,25,114,183,88,21,248,97,106,135,224,80]},"announce":[],"urlList":[]}}